<?xml version="1.0" encoding="UTF-8" standalone="no"?>
<!-- Uploaded to: SVG Repo, www.svgrepo.com, Generator: SVG Repo Mixer Tools -->

<svg
   version="1.0"
   id="Layer_1"
   width="800px"
   height="800px"
   viewBox="0 0 64 64"
   enable-background="new 0 0 64 64"
   xml:space="preserve"
   sodipodi:docname="box-svgrepo-com.svg"
   inkscape:version="1.3 (0e150ed6c4, 2023-07-21)"
   xmlns:inkscape="http://www.inkscape.org/namespaces/inkscape"
   xmlns:sodipodi="http://sodipodi.sourceforge.net/DTD/sodipodi-0.dtd"
   xmlns="http://www.w3.org/2000/svg"
   xmlns:svg="http://www.w3.org/2000/svg"><defs
   id="defs5" /><sodipodi:namedview
   id="namedview5"
   pagecolor="#ffffff"
   bordercolor="#000000"
   borderopacity="0.25"
   inkscape:showpageshadow="2"
   inkscape:pageopacity="0.0"
   inkscape:pagecheckerboard="0"
   inkscape:deskcolor="#d1d1d1"
   inkscape:zoom="4.4759859"
   inkscape:cx="41.890212"
   inkscape:cy="1.6756085"
   inkscape:window-width="1600"
   inkscape:window-height="829"
   inkscape:window-x="-8"
   inkscape:window-y="-8"
   inkscape:window-maximized="1"
   inkscape:current-layer="g5" />&#10;<g
   id="g5">&#10;	<path
   id="path1"
   d="M 0.15,0.675 V 1.8220137 L 0.72802732,2.4 H 1.6719727 L 2.25,1.8220137 V 0.675 Z m 0.51029299,0.13364063 1.10743951,0.001088 0.00254,1.9335e-4 c 0.098006,0.007599 0.1889531,0.0515259 0.256086,0.12369959 C 2.093874,1.0062118 2.1310664,1.1008108 2.1310664,1.2 c 0,0.099191 -0.03719,0.1937918 -0.1047129,0.2663789 -0.067137,0.072174 -0.1580857,0.1160984 -0.2560957,0.1236915 l -0.00506,2.05e-4 -1.10483796,0.00109 h -6.443e-5 c -0.21579367,0 -0.39135939,-0.1755657 -0.39135939,-0.3913594 0,-0.21579762 0.17556572,-0.39135935 0.39135939,-0.39135935 z m -7.035e-5,0.13281442 c -0.1424949,0 -0.2584746,0.11598835 -0.2584746,0.25855085 0,0.1425426 0.11596335,0.2585171 0.25849804,0.2585449 L 1.2112969,1.4580117 V 0.942 Z M 0.15,1.9280273 V 2.25 c 0,0.082912 0.0670876,0.15 0.15,0.15 h 0.32197267 z m 2.1,0 L 1.7780273,2.4 H 2.1 c 0.082912,0 0.15,-0.067088 0.15,-0.15 z"
   style="fill:#ffffff;stroke-width:0.0375" />&#10;	&#10;	&#10;	<path
   fill="#231F20"
   d="M 2.25,0 H 0.15 C 0.0670875,0 0,0.0670875 0,0.15 v 0.3 C 0,0.5329125 0.0670875,0.6 0.15,0.6 h 2.1 C 2.3329125,0.6 2.4,0.5329125 2.4,0.45 V 0.15 C 2.4,0.0670875 2.3329125,0 2.25,0 Z"
   id="path4"
   style="fill:#ffffff;stroke-width:0.0375"
   inkscape:export-filename="nsx.png"
   inkscape:export-xdpi="96"
   inkscape:export-ydpi="96" />&#10;	&#10;<rect
   style="fill:none;stroke-width:0.154956"
   id="rect5"
   width="3.2"
   height="2.4000001"
   x="0"
   y="0"
   ry="0.55555552"
   inkscape:export-filename="nsx.png"
   inkscape:export-xdpi="96"
   inkscape:export-ydpi="96" /></g>&#10;</svg>
