<?xml version="1.0" encoding="UTF-8" standalone="no"?>
<!-- Uploaded to: SVG Repo, www.svgrepo.com, Generator: SVG Repo Mixer Tools -->

<svg
   width="800px"
   height="800px"
   viewBox="0 0 1024 1024"
   fill="#000000"
   class="icon"
   version="1.1"
   id="svg1"
   sodipodi:docname="drug-svgrepo-com.svg"
   inkscape:version="1.3 (0e150ed6c4, 2023-07-21)"
   xmlns:inkscape="http://www.inkscape.org/namespaces/inkscape"
   xmlns:sodipodi="http://sodipodi.sourceforge.net/DTD/sodipodi-0.dtd"
   xmlns="http://www.w3.org/2000/svg"
   xmlns:svg="http://www.w3.org/2000/svg">
  <defs
     id="defs1" />
  <sodipodi:namedview
     id="namedview1"
     pagecolor="#ffffff"
     bordercolor="#000000"
     borderopacity="0.25"
     inkscape:showpageshadow="2"
     inkscape:pageopacity="0.0"
     inkscape:pagecheckerboard="0"
     inkscape:deskcolor="#d1d1d1"
     inkscape:zoom="0.79125"
     inkscape:cx="358.29384"
     inkscape:cy="400"
     inkscape:window-width="1600"
     inkscape:window-height="829"
     inkscape:window-x="-8"
     inkscape:window-y="-8"
     inkscape:window-maximized="1"
     inkscape:current-layer="svg1" />
  <path
     d="m 921.268,666.934 c -33.774,-36.31 -79.53,-58.41 -128.838,-62.232 l -1.274,-0.098 -557.142,-0.546 c -108.564,0 -196.888,88.324 -196.888,196.89 0,108.564 88.324,196.888 196.888,196.888 h 0.034 l 555.834,-0.546 2.546,-0.1 c 49.308,-3.82 95.064,-25.918 128.84,-62.228 33.97,-36.518 52.678,-84.112 52.678,-134.014 0,-49.902 -18.708,-97.494 -52.678,-134.014 z M 511.22,930.75 233.99,931.022 c -71.708,-0.014 -130.048,-58.36 -130.048,-130.072 0,-71.722 58.35,-130.074 130.038,-130.074 l 277.24,0.272 z"
     id="path1"
     sodipodi:nodetypes="ccccssccccscccsccc"
     style="fill:#ffffff" />
</svg>
