<?xml version="1.0" encoding="UTF-8" standalone="no"?>
<svg
   id="svg2390"
   viewBox="0 0 500 500"
   version="1.0"
   sodipodi:docname="Farmacia1.svg"
   inkscape:version="1.3 (0e150ed6c4, 2023-07-21)"
   xmlns:inkscape="http://www.inkscape.org/namespaces/inkscape"
   xmlns:sodipodi="http://sodipodi.sourceforge.net/DTD/sodipodi-0.dtd"
   xmlns="http://www.w3.org/2000/svg"
   xmlns:svg="http://www.w3.org/2000/svg"
   xmlns:rdf="http://www.w3.org/1999/02/22-rdf-syntax-ns#"
   xmlns:cc="http://creativecommons.org/ns#"
   xmlns:dc="http://purl.org/dc/elements/1.1/">
  <defs
     id="defs1" />
  <sodipodi:namedview
     id="namedview1"
     pagecolor="#ffffff"
     bordercolor="#000000"
     borderopacity="0.25"
     inkscape:showpageshadow="2"
     inkscape:pageopacity="0.0"
     inkscape:pagecheckerboard="0"
     inkscape:deskcolor="#d1d1d1"
     inkscape:zoom="3.5807887"
     inkscape:cx="-1467.1349"
     inkscape:cy="388.043"
     inkscape:window-width="1600"
     inkscape:window-height="829"
     inkscape:window-x="-8"
     inkscape:window-y="-8"
     inkscape:window-maximized="1"
     inkscape:current-layer="svg2390" />
  <path
     id="rect2"
     style="fill:#176b87;fill-opacity:1;stroke-width:0"
     d="m -1478.3333,369 v 16.66667 0 H -1495 v 16.66666 h 16.6667 V 419 h 16.6666 V 402.33333 H -1445 v -16.66666 h -16.6666 V 369 Z m 6.2605,8.33333 c 3.0813,0 3.5922,2.78707 3.7241,3.06185 0.2304,0.47968 0.5284,0.14999 0.8255,0.81569 0.2395,0.53744 -0.01,1.02706 -0.1539,1.60293 -0.144,0.5761 -0.3305,1.45312 -0.8444,1.53574 -0.4798,0.0766 -0.962,-0.79059 -1.2955,-1.21887 -0.3744,-0.47984 -0.6337,-1.0752 -0.5283,-1.67025 0.088,-0.49461 0.7679,-0.67188 0.7588,-0.92142 -0.01,-0.24954 -0.4132,-1.99629 -2.7168,-1.99629 -1.5646,0 -2.4757,1.44931 -2.4757,2.90814 0,2.97524 3.2216,3.96982 6.0081,4.41478 2.7637,0.44192 5.874,1.3629 5.874,4.76113 0,3.22464 -2.5341,6.06568 -5.7208,6.60312 -0.095,0.0159 -0.1903,0.0303 -0.2843,0.0432 v -1.69948 c 0.4563,-0.1569 0.9224,-0.36994 1.1673,-0.53215 1.4205,-0.94072 2.246,-2.22709 2.246,-4.64519 0,-2.47646 -3.8818,-2.40138 -7.6204,-4.1653 -2.3998,-1.13325 -3.5385,-2.22103 -3.2633,-5.10645 0.1918,-2.01551 2.1506,-3.79121 4.2996,-3.79121 z m -12.7463,11.83424 h 18.2443 c 0.4404,0.3305 0.6511,0.71554 0.6511,1.22872 0,2.49087 -1.2068,4.3738 -3.4134,4.85743 v 5.52148 c -0.2168,0.0235 -0.4063,0.0311 -0.5284,0.0311 -0.2911,0 -0.5579,-0.0243 -0.7967,-0.0683 v -5.23035 c -4.1122,-0.17358 -6.077,-1.95421 -7.822,-3.30729 -1.7086,-1.32426 -3.3207,-1.78516 -4.5684,-1.86171 -0.6691,-0.0417 -1.7661,-0.5571 -1.7665,-1.1711 z m 22.1654,0 h 7.4727 c 0,0.614 -1.0969,1.12941 -1.7655,1.1711 -1.2477,0.0766 -2.86,0.53745 -4.5686,1.86172 -0.4821,0.37371 -0.9808,0.78005 -1.5372,1.1765 0.379,-0.85354 0.5905,-1.78441 0.5905,-2.75013 0,-0.54654 -0.068,-1.03014 -0.1919,-1.45919 z m -8.4435,6.49851 v 1.89584 c -0.843,0.21679 -1.3979,0.69737 -1.3979,2.04817 0,1.09383 1.2667,1.63132 2.6296,1.63132 1.3629,0 2.5728,-0.4412 2.5728,-1.36296 0,-0.5761 -0.2502,-0.74896 -0.7876,-0.74896 -0.26,0 -0.5245,0.0516 -0.8217,0.13347 v -1.19616 c 1.8829,-0.54351 2.5053,-0.31009 3.029,-0.14636 0.6323,0.19709 1.1136,0.65272 1.1136,1.59343 0,1.93903 -3.5317,3.8773 -6.6032,2.9942 -2.9229,-0.83989 -3.1094,-2.49548 -3.1094,-3.55065 0,-1.44859 1.5267,-3.14883 3.3748,-3.29134 z m 0,3.2459 v 1.18554 c -0.1525,0.0978 -0.2942,0.20849 -0.4193,0.3366 -0.3524,-0.21453 -0.5435,-0.5049 -0.5435,-0.82403 0.2744,-0.25772 0.5936,-0.49041 0.9628,-0.69811 z m -2.3378,3.15638 c 0.4033,0.30397 0.8694,0.53669 1.3736,0.70345 0.057,1.28864 0.57,2.51136 2.5127,2.75013 1.6412,0.20163 2.563,0.32669 3.2733,0.86413 0.3547,0.26834 0.4699,0.70045 0.3258,0.79596 -0.144,0.0963 -0.3736,-0.0379 -0.4601,-0.13418 -0.086,-0.0955 -0.2092,-0.19102 -0.413,-0.27818 -0.2017,-0.0864 -1.6412,-0.144 -3.177,-0.36459 -1.4804,-0.21301 -3.5703,-1.037 -3.5703,-2.97526 0,-0.46619 0.042,-0.92256 0.135,-1.36146 z m 2.7728,0.99531 c 0.4359,0.044 0.8816,0.05 1.3251,0.0204 v 2.04211 c -0.4981,-0.0667 -0.9536,-0.16596 -1.3251,-0.39185 z m 0,3.6582 c 0.2115,0.05 0.4147,0.0872 0.6005,0.11375 0.2402,0.0348 0.482,0.0622 0.7246,0.0864 v 1.17266 c 0,0.84443 1.5448,0.9688 2.1399,1.11281 0.5836,0.141 1.0271,0.30698 1.3053,0.54727 0.2024,0.17435 1.1037,0.21075 1.7753,0.26837 0.6724,0.0583 1.4494,0.40326 1.4494,0.64355 h -14.6648 c 0,-0.2403 0.7769,-0.58595 1.4485,-0.64355 0.6717,-0.0576 1.5737,-0.094 1.7761,-0.26837 0.2782,-0.24029 0.7217,-0.40627 1.3053,-0.54727 0.5951,-0.14401 2.1399,-0.26838 2.1399,-1.11281 z" />
  <g
     id="capa1"
     transform="matrix(2.2740762,0,0,2.2740762,-1596.4384,400.87439)" />
  <metadata
     id="metadata1">
    <rdf:RDF>
      <cc:Work>
        <dc:format>image/svg+xml</dc:format>
        <dc:type
           rdf:resource="http://purl.org/dc/dcmitype/StillImage" />
        <cc:license
           rdf:resource="http://creativecommons.org/licenses/publicdomain/" />
        <dc:publisher>
          <cc:Agent
             rdf:about="http://openclipart.org/">
            <dc:title>Openclipart</dc:title>
          </cc:Agent>
        </dc:publisher>
        <dc:title>Farmacia 1</dc:title>
        <dc:date>2012-05-11T05:26:06</dc:date>
        <dc:description>apotecari, apothecary, clip art, clipart, cup, farmacia, higia, higya, medecina, medicina, medicine, pharmacy, snake, symbol, </dc:description>
        <dc:source>http://openclipart.org/detail/169979/farmacia-1-by-rferran</dc:source>
        <dc:creator>
          <cc:Agent>
            <dc:title>rferran</dc:title>
          </cc:Agent>
        </dc:creator>
        <dc:subject>
          <rdf:Bag>
            <rdf:li>apotecari</rdf:li>
            <rdf:li>apothecary</rdf:li>
            <rdf:li>clip art</rdf:li>
            <rdf:li>clipart</rdf:li>
            <rdf:li>cup</rdf:li>
            <rdf:li>farmacia</rdf:li>
            <rdf:li>higia</rdf:li>
            <rdf:li>higya</rdf:li>
            <rdf:li>medecina</rdf:li>
            <rdf:li>medicina</rdf:li>
            <rdf:li>medicine</rdf:li>
            <rdf:li>pharmacy</rdf:li>
            <rdf:li>snake</rdf:li>
            <rdf:li>symbol</rdf:li>
          </rdf:Bag>
        </dc:subject>
      </cc:Work>
      <cc:License
         rdf:about="http://creativecommons.org/licenses/publicdomain/">
        <cc:permits
           rdf:resource="http://creativecommons.org/ns#Reproduction" />
        <cc:permits
           rdf:resource="http://creativecommons.org/ns#Distribution" />
        <cc:permits
           rdf:resource="http://creativecommons.org/ns#DerivativeWorks" />
      </cc:License>
    </rdf:RDF>
  </metadata>
  <text
     xml:space="preserve"
     style="font-size:42.8751px;font-family:Arial;-inkscape-font-specification:Arial;letter-spacing:0px;fill:#176b87;fill-opacity:1;stroke-width:0"
     x="-1438.2659"
     y="408.62317"
     id="text5"
     inkscape:export-filename="logo_green.png"
     inkscape:export-xdpi="96"
     inkscape:export-ydpi="96"><tspan
       sodipodi:role="line"
       id="tspan5"
       x="-1438.2659"
       y="408.62317"
       style="font-style:normal;font-variant:normal;font-weight:bold;font-stretch:normal;font-size:42.8751px;font-family:'Gill Sans MT';-inkscape-font-specification:'Gill Sans MT Bold';stroke-width:0;fill:#176b87;fill-opacity:1">Farmacia</tspan></text>
  <g
     id="g2"
     transform="matrix(0.50393701,0,0,0.50393701,-738.2126,246.83539)"
     inkscape:export-filename="icon.png"
     inkscape:export-xdpi="96"
     inkscape:export-ydpi="96">
    <rect
       style="fill:#f9f9f9;stroke:#176b87;stroke-width:1.5;stroke-dasharray:none;stroke-opacity:1"
       id="rect1"
       width="62"
       height="62"
       x="-1501"
       y="363"
       ry="8.3780422"
       inkscape:export-filename="icon.png"
       inkscape:export-xdpi="96"
       inkscape:export-ydpi="96" />
    <path
       id="rect2-9"
       style="fill:#176b87;fill-opacity:1;stroke-width:0"
       d="m -1478.3333,369 v 16.66667 0 H -1495 v 16.66666 h 16.6667 V 419 h 16.6666 V 402.33333 H -1445 v -16.66666 h -16.6666 V 369 Z m 6.2605,8.33333 c 3.0813,0 3.5922,2.78707 3.7241,3.06185 0.2304,0.47968 0.5284,0.14999 0.8255,0.81569 0.2395,0.53744 -0.01,1.02706 -0.1539,1.60293 -0.144,0.5761 -0.3305,1.45312 -0.8444,1.53574 -0.4798,0.0766 -0.962,-0.79059 -1.2955,-1.21887 -0.3744,-0.47984 -0.6337,-1.0752 -0.5283,-1.67025 0.088,-0.49461 0.7679,-0.67188 0.7588,-0.92142 -0.01,-0.24954 -0.4132,-1.99629 -2.7168,-1.99629 -1.5646,0 -2.4757,1.44931 -2.4757,2.90814 0,2.97524 3.2216,3.96982 6.0081,4.41478 2.7637,0.44192 5.874,1.3629 5.874,4.76113 0,3.22464 -2.5341,6.06568 -5.7208,6.60312 -0.095,0.0159 -0.1903,0.0303 -0.2843,0.0432 v -1.69948 c 0.4563,-0.1569 0.9224,-0.36994 1.1673,-0.53215 1.4205,-0.94072 2.246,-2.22709 2.246,-4.64519 0,-2.47646 -3.8818,-2.40138 -7.6204,-4.1653 -2.3998,-1.13325 -3.5385,-2.22103 -3.2633,-5.10645 0.1918,-2.01551 2.1506,-3.79121 4.2996,-3.79121 z m -12.7463,11.83424 h 18.2443 c 0.4404,0.3305 0.6511,0.71554 0.6511,1.22872 0,2.49087 -1.2068,4.3738 -3.4134,4.85743 v 5.52148 c -0.2168,0.0235 -0.4063,0.0311 -0.5284,0.0311 -0.2911,0 -0.5579,-0.0243 -0.7967,-0.0683 v -5.23035 c -4.1122,-0.17358 -6.077,-1.95421 -7.822,-3.30729 -1.7086,-1.32426 -3.3207,-1.78516 -4.5684,-1.86171 -0.6691,-0.0417 -1.7661,-0.5571 -1.7665,-1.1711 z m 22.1654,0 h 7.4727 c 0,0.614 -1.0969,1.12941 -1.7655,1.1711 -1.2477,0.0766 -2.86,0.53745 -4.5686,1.86172 -0.4821,0.37371 -0.9808,0.78005 -1.5372,1.1765 0.379,-0.85354 0.5905,-1.78441 0.5905,-2.75013 0,-0.54654 -0.068,-1.03014 -0.1919,-1.45919 z m -8.4435,6.49851 v 1.89584 c -0.843,0.21679 -1.3979,0.69737 -1.3979,2.04817 0,1.09383 1.2667,1.63132 2.6296,1.63132 1.3629,0 2.5728,-0.4412 2.5728,-1.36296 0,-0.5761 -0.2502,-0.74896 -0.7876,-0.74896 -0.26,0 -0.5245,0.0516 -0.8217,0.13347 v -1.19616 c 1.8829,-0.54351 2.5053,-0.31009 3.029,-0.14636 0.6323,0.19709 1.1136,0.65272 1.1136,1.59343 0,1.93903 -3.5317,3.8773 -6.6032,2.9942 -2.9229,-0.83989 -3.1094,-2.49548 -3.1094,-3.55065 0,-1.44859 1.5267,-3.14883 3.3748,-3.29134 z m 0,3.2459 v 1.18554 c -0.1525,0.0978 -0.2942,0.20849 -0.4193,0.3366 -0.3524,-0.21453 -0.5435,-0.5049 -0.5435,-0.82403 0.2744,-0.25772 0.5936,-0.49041 0.9628,-0.69811 z m -2.3378,3.15638 c 0.4033,0.30397 0.8694,0.53669 1.3736,0.70345 0.057,1.28864 0.57,2.51136 2.5127,2.75013 1.6412,0.20163 2.563,0.32669 3.2733,0.86413 0.3547,0.26834 0.4699,0.70045 0.3258,0.79596 -0.144,0.0963 -0.3736,-0.0379 -0.4601,-0.13418 -0.086,-0.0955 -0.2092,-0.19102 -0.413,-0.27818 -0.2017,-0.0864 -1.6412,-0.144 -3.177,-0.36459 -1.4804,-0.21301 -3.5703,-1.037 -3.5703,-2.97526 0,-0.46619 0.042,-0.92256 0.135,-1.36146 z m 2.7728,0.99531 c 0.4359,0.044 0.8816,0.05 1.3251,0.0204 v 2.04211 c -0.4981,-0.0667 -0.9536,-0.16596 -1.3251,-0.39185 z m 0,3.6582 c 0.2115,0.05 0.4147,0.0872 0.6005,0.11375 0.2402,0.0348 0.482,0.0622 0.7246,0.0864 v 1.17266 c 0,0.84443 1.5448,0.9688 2.1399,1.11281 0.5836,0.141 1.0271,0.30698 1.3053,0.54727 0.2024,0.17435 1.1037,0.21075 1.7753,0.26837 0.6724,0.0583 1.4494,0.40326 1.4494,0.64355 h -14.6648 c 0,-0.2403 0.7769,-0.58595 1.4485,-0.64355 0.6717,-0.0576 1.5737,-0.094 1.7761,-0.26837 0.2782,-0.24029 0.7217,-0.40627 1.3053,-0.54727 0.5951,-0.14401 2.1399,-0.26838 2.1399,-1.11281 z" />
  </g>
</svg>
