<?xml version="1.0" encoding="UTF-8" standalone="no"?>
<!-- Uploaded to: SVG Repo, www.svgrepo.com, Generator: SVG Repo Mixer Tools -->

<svg
   width="800px"
   height="800px"
   viewBox="0 0 20 20"
   fill="none"
   version="1.1"
   id="svg1"
   sodipodi:docname="info-svgrepo-com.svg"
   inkscape:version="1.3 (0e150ed6c4, 2023-07-21)"
   xmlns:inkscape="http://www.inkscape.org/namespaces/inkscape"
   xmlns:sodipodi="http://sodipodi.sourceforge.net/DTD/sodipodi-0.dtd"
   xmlns="http://www.w3.org/2000/svg"
   xmlns:svg="http://www.w3.org/2000/svg">
  <defs
     id="defs1" />
  <sodipodi:namedview
     id="namedview1"
     pagecolor="#ffffff"
     bordercolor="#000000"
     borderopacity="0.25"
     inkscape:showpageshadow="2"
     inkscape:pageopacity="0.0"
     inkscape:pagecheckerboard="0"
     inkscape:deskcolor="#d1d1d1"
     inkscape:zoom="4.4759859"
     inkscape:cx="40.102896"
     inkscape:cy="39.879482"
     inkscape:window-width="1600"
     inkscape:window-height="829"
     inkscape:window-x="-8"
     inkscape:window-y="-8"
     inkscape:window-maximized="1"
     inkscape:current-layer="svg1" />
  <path
     fill="#000000"
     fill-rule="evenodd"
     d="m 2.5086082,1.0833333 a 0.2916667,0.2916667 0 1 0 0,0.5833334 0.2916667,0.2916667 0 0 0 0,-0.5833334 z M 2.1336082,1.375 a 0.375,0.375 0 1 1 0.75,0 0.375,0.375 0 0 1 -0.75,0 z M 2.4669415,1.2083333 a 0.04166667,0.04166667 0 0 1 0.041667,-0.041667 h 4.167e-4 a 0.04166667,0.04166667 0 1 1 0,0.083333 h -4.167e-4 a 0.04166667,0.04166667 0 0 1 -0.041667,-0.041666 z m 4.167e-4,0.3333334 a 0.04166667,0.04166667 0 1 0 0.083333,0 V 1.3333333 a 0.04166667,0.04166667 0 1 0 -0.083333,0 z"
     id="path1"
     style="stroke-width:0.0416667;fill:#ffffff" />
  <rect
     style="fill:none;stroke-width:0.086053"
     id="rect1"
     width="1"
     height="0.75"
     x="2.1336081"
     y="1"
     inkscape:export-filename="gt.png"
     inkscape:export-xdpi="96"
     inkscape:export-ydpi="96" />
</svg>
